/* XPM */
static char *PPI[]={
"16 16 28 1",
"a c None",
"j c #018001",
"g c #01c001",
"e c #01ff01",
"c c #313131",
"z c #800101",
"v c #c00101",
"m c #ff0101",
"n c #00c000",
"d c #00ff00",
". c #303030",
"y c #800000",
"s c #c00000",
"p c #ff0000",
"l c #009500",
"q c #00aa00",
"h c #00ff00",
"# c #303030",
"x c #800000",
"o c #e90000",
"k c #00a000",
"i c #00b000",
"f c #00c000",
"b c #303030",
"w c #b00000",
"r c #c00000",
"t c #cf0000",
"u c #df0000",
".##ab#c..aaaaaaa",
"...aba...aaaaaaa",
".##ab#c..aacccaa",
"..aabaa..aaaaaaa",
"..aabaa..aaaaaaa",
"ccaa.aaccdeaaaaa",
"aaaaaaaaadfgaaaa",
"dddddddddhfijaaa",
"kkkkkkkkkkfflaaa",
"aaaaaamaanflaaaa",
"aaaaaopaanqaaaaa",
"aaaaorsaagaaaaaa",
"aaaorrrtuuuuuuuu",
"aaavwrxyyyyyyyyy",
"aaaazwyaaaaaaaaa",
"aaaaazyaaaaaaaaa"};
