/* XPM */
static char *Serial[]={
"16 16 20 1",
". c None",
"m c #808080",
"j c #ffffc0",
"i c #808080",
"r c #a1a1a1",
"# c #c3c3c3",
"e c #ffff00",
"a c #ffff60",
"o c #959595",
"g c #ababab",
"l c #888888",
"c c #909090",
"q c #989898",
"d c #a0a0a0",
"f c #a1a1a1",
"p c #a8a8a8",
"k c #a9a9a9",
"b c #b1b1b1",
"h c #b2b2b2",
"n c #bababa",
".#####..........",
"abcdcc..........",
"ebfdfcbbbbbbbg..",
"ebhdhciiiiiiidi.",
"jkcccl.......bi.",
".............bi.",
".............bi.",
"..gbbbbbbbbbbdm.",
".#ciiiiiiiiiim..",
".#c.............",
".#c.............",
".#c.......nbbbkj",
".#d#######bcdcce",
"..occcccccbcbcfe",
"..........bpppqa",
"..........riiii."};
