/* XPM */
static char * class_xpm[] = {
"16 16 156 2",
"  	c None",
". 	c #57A7EC",
"+ 	c #55B3ED",
"@ 	c #99F0FF",
"# 	c #AAFFFF",
"$ 	c #64C3EB",
"% 	c #1477BD",
"& 	c #51DAFF",
"* 	c #6AE9FF",
"= 	c #67E4FF",
"- 	c #65E2FF",
"; 	c #6BEEFF",
"> 	c #40BCF1",
", 	c #0E8DBF",
"' 	c #18E8FF",
") 	c #14C3FF",
"! 	c #11BEFF",
"~ 	c #12BEFF",
"{ 	c #14BFFF",
"] 	c #36DEFF",
"^ 	c #2A9AD8",
"/ 	c #0A84BF",
"( 	c #05E8FF",
"_ 	c #0DD3FF",
": 	c #0AB1FF",
"< 	c #11B6FF",
"[ 	c #39D4FF",
"} 	c #56F1FF",
"| 	c #189EDA",
"1 	c #1C80BB",
"2 	c #00D6FF",
"3 	c #00CEFF",
"4 	c #1FCEFF",
"5 	c #26D2FF",
"6 	c #25D6FF",
"7 	c #13DBFF",
"8 	c #038ED8",
"9 	c #FFAF70",
"0 	c #8DB6D5",
"a 	c #02B5FF",
"b 	c #00C1FF",
"c 	c #10C3FF",
"d 	c #05C1FF",
"e 	c #00C0FF",
"f 	c #00C2FF",
"g 	c #0B94DC",
"h 	c #0D5F19",
"i 	c #FB924B",
"j 	c #FFCA97",
"k 	c #FFD8AE",
"l 	c #FFCC9F",
"m 	c #96A3BE",
"n 	c #08A5FB",
"o 	c #0DB8FF",
"p 	c #04B2FF",
"q 	c #00A3FE",
"r 	c #239CE1",
"s 	c #7EC8BF",
"t 	c #85FF85",
"u 	c #14821C",
"v 	c #D1772E",
"w 	c #FFBD71",
"x 	c #FFA666",
"y 	c #FFA466",
"z 	c #FFA363",
"A 	c #FF9754",
"B 	c #A87A7F",
"C 	c #2296F3",
"D 	c #1495E1",
"E 	c #4BAFA5",
"F 	c #81E584",
"G 	c #8BF984",
"H 	c #8BF88E",
"I 	c #68FB6D",
"J 	c #15881E",
"K 	c #D06C24",
"L 	c #FFA140",
"M 	c #FF842C",
"N 	c #FF6712",
"O 	c #FF620F",
"P 	c #FF7628",
"Q 	c #FFA360",
"R 	c #A38463",
"S 	c #1FD22F",
"T 	c #3BE435",
"U 	c #39D341",
"V 	c #3BD545",
"W 	c #3AD544",
"X 	c #3CD946",
"Y 	c #3AEE42",
"Z 	c #0E6213",
"` 	c #CC621F",
" .	c #FF8E35",
"..	c #FF862F",
"+.	c #FF7828",
"@.	c #FF823C",
"#.	c #FFA266",
"$.	c #FFA265",
"%.	c #C27A27",
"&.	c #12D413",
"*.	c #01DC0A",
"=.	c #0FC11B",
"-.	c #03AF15",
";.	c #0EBE1C",
">.	c #36D73E",
",.	c #57F25C",
"'.	c #0D6E11",
").	c #BD5216",
"!.	c #FF7C28",
"~.	c #FF7221",
"{.	c #FF7D32",
"].	c #FF7A37",
"^.	c #FF7532",
"/.	c #FF6E26",
"(.	c #BF6B21",
"_.	c #12C31D",
":.	c #00C808",
"<.	c #09C714",
"[.	c #26C431",
"}.	c #2ACF35",
"|.	c #3CD545",
"1.	c #1FD62A",
"2.	c #016206",
"3.	c #CB4D14",
"4.	c #FF6517",
"5.	c #FF6620",
"6.	c #FF5918",
"7.	c #FF5915",
"8.	c #F84F15",
"9.	c #7D370F",
"0.	c #0BA41E",
"a.	c #00B912",
"b.	c #04B315",
"c.	c #15BA23",
"d.	c #05B417",
"e.	c #04B416",
"f.	c #01C013",
"g.	c #035D09",
"h.	c #B43C0E",
"i.	c #FF5B18",
"j.	c #FD460F",
"k.	c #AE2B08",
"l.	c #320901",
"m.	c #0D901D",
"n.	c #07A81D",
"o.	c #0EA321",
"p.	c #00A215",
"q.	c #01A316",
"r.	c #02790D",
"s.	c #7E250A",
"t.	c #4B1003",
"u.	c #147E22",
"v.	c #139F2B",
"w.	c #027714",
"x.	c #013606",
"y.	c #09350E",
"                .               ",
"            + @ # $             ",
"        % & * = - ; >           ",
"        , ' ) ! ~ { ] ^         ",
"        / ( _ : < [ } |         ",
"        1 2 3 4 5 6 7 8         ",
"      9 0 a b c d e f g h       ",
"  i j k l m n o p q r s t u     ",
"v w x y z A B C D E F G H I J   ",
"K L M N O P Q R S T U V W X Y Z ",
"`  ...+.@.#.$.%.&.*.=.-.;.>.,.'.",
").!.~.{.].^./.(._.:.<.[.}.|.1.2.",
"  3.4.5.6.7.8.9.0.a.b.c.d.e.f.g.",
"    h.i.j.k.l.    m.n.o.p.q.r.  ",
"      s.t.          u.v.w.x.    ",
"                      y.        "};
