/* XPM */
static char * device_xpm[] = {
"16 16 36 1",
" 	c None",
".	c #687EBA",
"+	c #FFFFFF",
"@	c #41519F",
"#	c #EEF5FF",
"$	c #EBF3FF",
"%	c #E9F2FF",
"&	c #A7C3F0",
"*	c #74797F",
"=	c #E8F1FF",
"-	c #E8F2FF",
";	c #E7F0FF",
">	c #73787F",
",	c #E6F1FF",
"'	c #E6F0FF",
")	c #E5F0FF",
"!	c #E4EFFF",
"~	c #B4B4B4",
"{	c #4F4F4F",
"]	c #E6E6E6",
"^	c #757575",
"/	c #E9E9E9",
"(	c #B6B6B6",
"_	c #7E7E7E",
":	c #B5B5B5",
"<	c #BCBCBC",
"[	c #484848",
"}	c #4B4B4B",
"|	c #4D4D4D",
"1	c #575757",
"2	c #E1E1E1",
"3	c #CECECE",
"4	c #282828",
"5	c #505050",
"6	c #464646",
"7	c #000000",
"     ......     ",
"    .++++++@    ",
"    .+##$%&@    ",
"    .+##*=&@    ",
"    .+##-;&@    ",
"    .+##>,&@    ",
"    .+##')&@    ",
"    .+###!&@    ",
"    .+###!&@    ",
"    .+###!&@    ",
"    .+&&&&&@    ",
"     @@~{@@     ",
"       {{       ",
"]~~~~~^/(_:<~~~~",
"[}|||123<:415[[6",
"      7777      "};
