/* XPM */
static char * err_xpm[] = {
"16 16 19 1",
" 	c #FFFFFF",
".	c #FFEDED",
"+	c #FFDCDC",
"@	c #FFC0C0",
"#	c #FFA6A6",
"$	c #FF9999",
"%	c #FFC6C6",
"&	c #FF7575",
"*	c #FF5E5E",
"=	c #FF5050",
"-	c #FF8E8E",
";	c #FF3636",
">	c #FF2020",
",	c #FF1515",
"'	c #FF2929",
")	c #FF0F0F",
"!	c #FF0404",
"~	c #FF0202",
"{	c #FF0000",
"     .++++.     ",
"   .+@#$$#@+.   ",
"  .%$&*==*&$%.  ",
" .%-*;>,,>;*-%. ",
" +$*')!~~!)'*$+ ",
".@&;)~{{{{~);&@.",
"+#*>!{{{{{{!>*#+",
"+$=,~{{{{{{~,=$+",
"+$=,~{{{{{{~,=$+",
"+#*>!{{{{{{!>*#+",
".@&;)~{{{{~);&@.",
" +$*')!~~!)'*$+ ",
" .%-*;>,,>;*-%. ",
"  .%$&*==*&$%.  ",
"   .+@#$$#@+.   ",
"     .++++.     "};
