/* XPM */
static char *group[]={
"16 16 60 1",
". c None",
"n c #090909",
"c c #040404",
"j c #030303",
"W c #ab03ab",
"x c #020202",
"# c #010101",
"g c #010101",
"m c #010101",
"T c #010101",
"w c #000000",
"I c #848284",
"1 c #000000",
"2 c #000000",
"N c #000000",
"q c #848284",
"k c #000000",
"3 c #000000",
"S c #000000",
"A c #bab7ba",
"b c #000000",
"h c #1c1c00",
"a c #000000",
"D c #000084",
"Q c #0000ff",
"X c #003636",
"G c #0036ff",
"F c #00a1d1",
"K c #070707",
"r c #0e0e0e",
"L c #0e0ee4",
"B c #151415",
"s c #1c1b1c",
"4 c #1f1f1f",
"J c #232223",
"u c #2a292a",
"o c #313031",
"Y c #31d1d1",
"5 c #343334",
"p c #3e3d3e",
"d c #434300",
"R c #4343bc",
"O c #535253",
"C c #6866a6",
"P c #6866e1",
"i c #6b6b00",
"t c #848284",
"l c #939300",
"M c #a4a300",
"Z c #bc00bc",
"v c #bcbc00",
"y c #c6c3c6",
"0 c #c900c9",
"U c #e752e7",
"f c #f1f100",
"E c #f1f107",
"H c #f1f10d",
"z c #fcfb0a",
"V c #ff00ff",
"e c #ffff00",
"......#aaab.....",
".....cdeeefaaag.",
".....heeiaaaaaaj",
"....kfelm.naopaj",
"....kfelmqrsttuj",
".gaaafvw...xopaj",
"jpyyyzvw..AstttB",
"jpCDDEvw..nsttuj",
"jpCFGHvwIJKtttuj",
"jpCFGLMlmNasOag.",
"jpPQQQRei#SsOT..",
"jpyyyyyyUVWXYpg.",
"jaaaaaaaaZV01.2j",
"3........Nb.....",
"4yyyyyyyy5b.....",
"aaaaaaaaaab....."};
