/* XPM */
static char * kdmconfig_xpm[] = {
"16 16 173 2",
"  	c None",
". 	c #67AD61",
"+ 	c #92C58E",
"@ 	c #81B67D",
"# 	c #305A2E",
"$ 	c #87CA86",
"% 	c #C6ECC8",
"& 	c #C7EAC8",
"* 	c #C7ECC9",
"= 	c #B4EAB4",
"- 	c #367433",
"; 	c #177A10",
"> 	c #6BCB69",
", 	c #6EC667",
"' 	c #6EC764",
") 	c #6DC664",
"! 	c #72C96F",
"~ 	c #3EB13C",
"{ 	c #5E8FC9",
"] 	c #9BBCE2",
"^ 	c #9BBAE1",
"/ 	c #5F80A7",
"( 	c #128A22",
"_ 	c #2BB409",
": 	c #42BD17",
"< 	c #48C116",
"[ 	c #46BF16",
"} 	c #38B716",
"| 	c #1AAE07",
"1 	c #084100",
"2 	c #709CCE",
"3 	c #D3E9FF",
"4 	c #D4E7FB",
"5 	c #D4E8FC",
"6 	c #D3E7FF",
"7 	c #71ABC6",
"8 	c #2CAB16",
"9 	c #4DCD00",
"0 	c #59D400",
"a 	c #53D000",
"b 	c #41C600",
"c 	c #2DB202",
"d 	c #1B4A7E",
"e 	c #86BFFA",
"f 	c #9BC6F1",
"g 	c #9BC7F1",
"h 	c #9AC7F1",
"i 	c #9AC6F1",
"j 	c #7FB0FA",
"k 	c #479F80",
"l 	c #78E40A",
"m 	c #8DF210",
"n 	c #84EB11",
"o 	c #62D60E",
"p 	c #256A05",
"q 	c #2F629A",
"r 	c #73B7F6",
"s 	c #82BDEF",
"t 	c #8AC3F1",
"u 	c #8AC2F1",
"v 	c #6CACF3",
"w 	c #569FB5",
"x 	c #89D354",
"y 	c #9AE44A",
"z 	c #96E052",
"A 	c #6EC54E",
"B 	c #0F4605",
"C 	c #204772",
"D 	c #85C6FD",
"E 	c #98CFF6",
"F 	c #A1D7F8",
"G 	c #96CEF5",
"H 	c #7EB8F8",
"I 	c #67AFA9",
"J 	c #85D171",
"K 	c #82CE6E",
"L 	c #84CF74",
"M 	c #88D57E",
"N 	c #46B232",
"O 	c #5787B2",
"P 	c #B6E5FF",
"Q 	c #CFF4FF",
"R 	c #CEF3FF",
"S 	c #B6E0FF",
"T 	c #6CB6B6",
"U 	c #43B823",
"V 	c #52C61B",
"W 	c #51C71A",
"X 	c #51C61B",
"Y 	c #4EC320",
"Z 	c #3DC118",
"` 	c #208402",
" .	c #3266A0",
"..	c #A5CEF7",
"+.	c #C2DFF7",
"@.	c #C2DFF8",
"#.	c #ADCFFC",
"$.	c #4E9F9A",
"%.	c #3EC001",
"&.	c #51CF00",
"*.	c #55D000",
"=.	c #53CE00",
"-.	c #49C800",
";.	c #39C000",
">.	c #30B302",
",.	c #1E4B7E",
"'.	c #8EC5F9",
").	c #B2D5F6",
"!.	c #A6CDF2",
"~.	c #B0D3F5",
"{.	c #8DBBFA",
"].	c #50AA7A",
"^.	c #68DF00",
"/.	c #72E400",
"(.	c #6EE100",
"_.	c #5ED700",
":.	c #4ACA00",
"<.	c #46CD0D",
"[.	c #265909",
"}.	c #5EA0DF",
"|.	c #8BC4F5",
"1.	c #90C6F2",
"2.	c #92C8F2",
"3.	c #8FC5F1",
"4.	c #88BFF5",
"5.	c #67A9E1",
"6.	c #80E033",
"7.	c #A0FF12",
"8.	c #98FC19",
"9.	c #87F121",
"0.	c #7AE32C",
"a.	c #65C528",
"b.	c #1C3E06",
"c.	c #254B73",
"d.	c #82C3FB",
"e.	c #8DC8F4",
"f.	c #98CFF5",
"g.	c #9ED4F6",
"h.	c #9ED3F6",
"i.	c #97CFF5",
"j.	c #8BC6F3",
"k.	c #7CBBFA",
"l.	c #68A088",
"m.	c #67981E",
"n.	c #639427",
"o.	c #507D20",
"p.	c #335514",
"q.	c #528CC5",
"r.	c #9FD7FF",
"s.	c #A1D6F8",
"t.	c #AFE1FB",
"u.	c #B9E7FD",
"v.	c #B8E6FD",
"w.	c #AEE0FA",
"x.	c #9ED4F7",
"y.	c #99D4FF",
"z.	c #5C89BE",
"A.	c #32577E",
"B.	c #9BCAEE",
"C.	c #BFEBFF",
"D.	c #D1FAFF",
"E.	c #DFFFFF",
"F.	c #DEFFFF",
"G.	c #D1FBFF",
"H.	c #C0EDFF",
"I.	c #A1D0F8",
"J.	c #425F80",
"K.	c #354A60",
"L.	c #5C7286",
"M.	c #728397",
"N.	c #72869A",
"O.	c #657B8F",
"P.	c #46586D",
"                  . + @ #       ",
"                $ % & * = -     ",
"              ; > , ' ) ! ~     ",
"      { ] ^ / ( _ : < [ } | 1   ",
"    2 3 4 5 6 7 8 9 0 a b c     ",
"  d e f g h i j k l m n o p     ",
"  q r s t u s v w x y z A B     ",
"  C D E F F G H I J K L M N     ",
"    O P Q R S T U V W X Y Z `   ",
"     ...+.@.#.$.%.&.*.=.-.;.>.  ",
"  ,.'.).!.!.~.{.].^./.(._.:.<.[.",
"  }.|.1.2.2.3.4.5.6.7.8.9.0.a.b.",
"c.d.e.f.g.h.i.j.k.l.m.n.o.p.    ",
"q.r.s.t.u.v.w.x.y.z.            ",
"A.B.C.D.E.F.G.H.I.J.            ",
"    K.L.M.N.O.P.                "};
