/* XPM */
static char * help_xpm[] = {
"16 16 135 2",
"  	c None",
". 	c #EBAE93",
"+ 	c #E1A48B",
"@ 	c #E59C7C",
"# 	c #964D33",
"$ 	c #F8CEBD",
"% 	c #FDF0EB",
"& 	c #FFFDFB",
"* 	c #FFFFFF",
"= 	c #FFFCFB",
"- 	c #FFC7C0",
"; 	c #FD927B",
"> 	c #C2481F",
", 	c #DFA08B",
"' 	c #FEB1A9",
") 	c #FFE9EB",
"! 	c #FEFFFF",
"~ 	c #FDFFFF",
"{ 	c #FDFAFE",
"] 	c #FFD7DA",
"^ 	c #FFD7DB",
"/ 	c #FFBEB8",
"( 	c #E9603A",
"_ 	c #FFADA5",
": 	c #FFC8CA",
"< 	c #FDCBCD",
"[ 	c #FFEDEB",
"} 	c #FAD6C6",
"| 	c #E8B9A4",
"1 	c #F29982",
"2 	c #FF9488",
"3 	c #FDC3C5",
"4 	c #FDCFD2",
"5 	c #FFBCB9",
"6 	c #CD4C2C",
"7 	c #F89787",
"8 	c #FFAEAF",
"9 	c #FDB7B9",
"0 	c #FF8E86",
"a 	c #C66347",
"b 	c #532915",
"c 	c #8D1F00",
"d 	c #ED5A3F",
"e 	c #FAAEB0",
"f 	c #FEE1E3",
"g 	c #FFD9CF",
"h 	c #6D2712",
"i 	c #FEB0AA",
"j 	c #FEAEB0",
"k 	c #FE8E8C",
"l 	c #C64F33",
"m 	c #F1A996",
"n 	c #FAFFFF",
"o 	c #BC7762",
"p 	c #E4A88E",
"q 	c #FFFEFD",
"r 	c #F9F3F4",
"s 	c #F9B2A1",
"t 	c #4F1E0B",
"u 	c #B56548",
"v 	c #FAF8F7",
"w 	c #DAA99C",
"x 	c #E2A48B",
"y 	c #FFFDFC",
"z 	c #F9FFFF",
"A 	c #E4B8A3",
"B 	c #773822",
"C 	c #FBF5F2",
"D 	c #DEB7AE",
"E 	c #E49B7C",
"F 	c #FFFBFA",
"G 	c #F7FFFF",
"H 	c #ECBCA5",
"I 	c #A63C1F",
"J 	c #F0D8D6",
"K 	c #D9B5AC",
"L 	c #99593F",
"M 	c #FFFEF8",
"N 	c #F6FFFF",
"O 	c #F8BCAF",
"P 	c #8E2B06",
"Q 	c #C52914",
"R 	c #EA5C5E",
"S 	c #FF8586",
"T 	c #C05A51",
"U 	c #FFBBA4",
"V 	c #FA9699",
"W 	c #ED4749",
"X 	c #E42F15",
"Y 	c #AF1C02",
"Z 	c #DA3533",
"` 	c #EE4344",
" .	c #FF3736",
"..	c #7C0D04",
"+.	c #C6360D",
"@.	c #FF2B25",
"#.	c #F32D2F",
"$.	c #E72C2D",
"%.	c #E22F1C",
"&.	c #B05235",
"*.	c #8B3D24",
"=.	c #BF5331",
"-.	c #C56F5C",
";.	c #D62C28",
">.	c #E62F30",
",.	c #FE3132",
"'.	c #D11E17",
").	c #200200",
"!.	c #E63009",
"~.	c #FF1E1C",
"{.	c #F21316",
"].	c #E84244",
"^.	c #F0E4E3",
"/.	c #F0ECEA",
"(.	c #E7E9E9",
"_.	c #EDF6F7",
":.	c #EC7374",
"<.	c #FB1314",
"[.	c #E61814",
"}.	c #4E0700",
"|.	c #CD2403",
"1.	c #FF0701",
"2.	c #FF6E6F",
"3.	c #FBFFFF",
"4.	c #FECECD",
"5.	c #CF1914",
"6.	c #4F0300",
"7.	c #6E1100",
"8.	c #BC5540",
"9.	c #D8A89A",
"0.	c #DDB6AC",
"a.	c #D8AFA7",
"b.	c #BE8B81",
"c.	c #7C413A",
"d.	c #210503",
"            . + @ #             ",
"        $ % & * = - ; >         ",
"    , ' ) ! ~ * { ] ^ / (       ",
"    _ : < [ } | 1 2 3 4 5 6     ",
"  7 8 9 0 a b     c d e f g h   ",
"  i j k l             m n * o   ",
"p q r s t             u v * w   ",
"x y z A               B C * D   ",
"E F G H               I J * K   ",
"L M N O P             Q R S T   ",
"  U V W X           Y Z `  ...  ",
"  +.@.#.$.%.&.*.=.-.;.>.,.'.).  ",
"    !.~.{.].^./.(._.:.<.[.}.    ",
"      |.1.2.3.z n ! 4.5.6.      ",
"        7.8.9.0.a.b.c.d.        ",
"                                "};
