/* XPM */
static char * info_xpm[] = {
"16 16 181 2",
"  	c None",
". 	c #5978A9",
"+ 	c #718AB2",
"@ 	c #6A84AE",
"# 	c #6D88B1",
"$ 	c #5B79A9",
"% 	c #5472A0",
"& 	c #829BC3",
"* 	c #D6E0F2",
"= 	c #D4DDEC",
"- 	c #CCD9ED",
"; 	c #7490BE",
"> 	c #5371A0",
", 	c #5171A4",
"' 	c #B3C5E2",
") 	c #D8E0EE",
"! 	c #DBE2F0",
"~ 	c #F1F4F9",
"{ 	c #E0E7F2",
"] 	c #D4DEEC",
"^ 	c #98B0D7",
"/ 	c #5170A1",
"( 	c #5472A2",
"_ 	c #9CB3D8",
": 	c #B8C7E1",
"< 	c #B7C6E2",
"[ 	c #B5C5E1",
"} 	c #EEF2F8",
"| 	c #FFFFFF",
"1 	c #FAFBFD",
"2 	c #B6C5DF",
"3 	c #BAC8E2",
"4 	c #7E9CCC",
"5 	c #627BA5",
"6 	c #6083B9",
"7 	c #9DB2D7",
"8 	c #9BB2D7",
"9 	c #9AB2D8",
"0 	c #BFCEE6",
"a 	c #F7F9FB",
"b 	c #CCD7E8",
"c 	c #98B0D4",
"d 	c #9BB3D8",
"e 	c #9EB4D8",
"f 	c #4C74B2",
"g 	c #4D73A8",
"h 	c #7397CC",
"i 	c #7F9ECE",
"j 	c #7F9FCE",
"k 	c #7FA0CF",
"l 	c #7C9ECE",
"m 	c #7B9ECE",
"n 	c #80A1D0",
"o 	c #7E9FCE",
"p 	c #7C9DCD",
"q 	c #648AC4",
"r 	c #3C6CB4",
"s 	c #2B60AE",
"t 	c #597EB0",
"u 	c #648DC7",
"v 	c #628CC5",
"w 	c #638DC7",
"x 	c #628DC7",
"y 	c #9AB6DC",
"z 	c #E0E8F4",
"A 	c #EAF0F8",
"B 	c #EEF2F9",
"C 	c #608CC5",
"D 	c #487BC0",
"E 	c #2963B3",
"F 	c #245FB0",
"G 	c #265EAF",
"H 	c #265FB0",
"I 	c #567FB4",
"J 	c #3B6AA6",
"K 	c #4879BE",
"L 	c #467AC0",
"M 	c #467BC0",
"N 	c #487DC2",
"O 	c #447BC2",
"P 	c #97B6DD",
"Q 	c #F7F9FC",
"R 	c #2C69B5",
"S 	c #2868B8",
"T 	c #2867B7",
"U 	c #2865B5",
"V 	c #2763B4",
"W 	c #2662B3",
"X 	c #5080B6",
"Y 	c #356AA7",
"Z 	c #2D6AB9",
"` 	c #2D6CBA",
" .	c #2E6EBC",
"..	c #2E6FBD",
"+.	c #2E70BE",
"@.	c #709DD3",
"#.	c #F6F9FC",
"$.	c #2B6CB8",
"%.	c #2A6DBE",
"&.	c #2A6BBC",
"*.	c #2969BA",
"=.	c #2766B7",
"-.	c #5186BA",
";.	c #4D81B4",
">.	c #286FBD",
",.	c #2A6EBD",
"'.	c #2B70BF",
").	c #2C72C1",
"!.	c #2E74C2",
"~.	c #70A0D6",
"{.	c #3072BC",
"].	c #2E73C3",
"^.	c #2B70C1",
"/.	c #2A6EBE",
"(.	c #2A6CBC",
"_.	c #266DBC",
":.	c #5D89B7",
"<.	c #6083B0",
"[.	c #2672BE",
"}.	c #2C72C2",
"|.	c #3175C4",
"1.	c #387AC7",
"2.	c #3D7CC8",
"3.	c #7CA7DA",
"4.	c #F7FAFC",
"5.	c #407AC0",
"6.	c #3D7DC9",
"7.	c #377AC6",
"8.	c #3075C4",
"9.	c #2B71C1",
"0.	c #2772BC",
"a.	c #7890B6",
"b.	c #4980BA",
"c.	c #397CC8",
"d.	c #4180C9",
"e.	c #4984CC",
"f.	c #4D86CE",
"g.	c #87AEDE",
"h.	c #F9FBFC",
"i.	c #5084C5",
"j.	c #4E88CE",
"k.	c #4784CC",
"l.	c #3E7DC8",
"m.	c #367AC6",
"n.	c #5186BB",
"o.	c #5089C7",
"p.	c #5089CF",
"q.	c #588ED2",
"r.	c #7CA6DC",
"s.	c #DAE4F2",
"t.	c #EAF0F6",
"u.	c #EAEFF6",
"v.	c #C4D5EA",
"w.	c #5F90CF",
"x.	c #578DD2",
"y.	c #5184C1",
"z.	c #5884B9",
"A.	c #859DC2",
"B.	c #6291CB",
"C.	c #709EDA",
"D.	c #6E9BD8",
"E.	c #709AD4",
"F.	c #729BD4",
"G.	c #719AD4",
"H.	c #6E98D3",
"I.	c #6B98D4",
"J.	c #709FDC",
"K.	c #5E8BC4",
"L.	c #7492C1",
"M.	c #8DACDE",
"N.	c #90B1E4",
"O.	c #94B4E7",
"P.	c #94B4E6",
"Q.	c #90B0E4",
"R.	c #8BACDD",
"S.	c #7795C3",
"T.	c #A2AFC8",
"U.	c #8398C0",
"V.	c #90A4CA",
"W.	c #889DC3",
"X.	c #A4B2C8",
"          . + @ @ # $           ",
"      % & * = = = = - ; >       ",
"    , ' ) = ! ~ { = ] ) ^ /     ",
"  ( _ : < [ } | 1 2 < < 3 4 5   ",
"  6 7 8 8 9 0 a b c d 8 8 e f   ",
"g h i j k l m n o n n p q r s   ",
"t u v w x y z A B C D E F G H I ",
"J K L M N O P | Q R S T U V W X ",
"Y Z `  ...+.@.| #.$.%.&.*.S =.-.",
";.>.,.'.).!.~.| Q {.].^./.(._.:.",
"<.[.}.|.1.2.3.| 4.5.6.7.8.9.0.a.",
"  b.c.d.e.f.g.| h.i.j.k.l.m.n.  ",
"    o.p.q.r.s.t.u.v.w.x.y.z.    ",
"    A.B.C.D.E.F.G.H.I.J.K.      ",
"        L.M.N.O.P.Q.R.S.        ",
"          T.U.V.V.W.X.          "};
