/* XPM */
static char * not_xpm[] = {
"16 16 18 1",
" 	c #FFFFFF",
".	c #F7F7F7",
"+	c #EBEBEB",
"@	c #E3E3E3",
"#	c #DFDFDF",
"$	c #EFEFEF",
"%	c #D3D3D3",
"&	c #CBCBCB",
"*	c #C6C6C6",
"=	c #DADADA",
"-	c #BCBCBC",
";	c #B3B3B3",
">	c #B1B1B1",
",	c #B8B8B8",
"'	c #ADADAD",
")	c #A9A9A9",
"!	c #A7A7A7",
"~	c #A6A6A6",
"     ......     ",
"   ..+@##@+..   ",
"  .$#%&**&%#$.  ",
" .$=&-;>>;-&=$. ",
" .#&,')!!)',&#. ",
".+%-'!~~~~!'-%+.",
".@&;)~~~~~~);&@.",
".#*>!~~~~~~!>*#.",
".#*>!~~~~~~!>*#.",
".@&;)~~~~~~);&@.",
".+%-'!~~~~!'-%+.",
" .#&,')!!)',&#. ",
" .$=&-;>>;-&=$. ",
"  .$#%&**&%#$.  ",
"   ..+@##@+..   ",
"     ......     "};
