/* XPM */
static char * ok_xpm[] = {
"16 16 24 1",
" 	c #FFFFFF",
".	c #F3FFF3",
"+	c #E7FFE7",
"@	c #D3F9D4",
"#	c #C0F9C2",
"$	c #B5F9B9",
"%	c #D8FBD9",
"&	c #98F79D",
"*	c #83F587",
"=	c #76F37B",
"-	c #ADF9B1",
";	c #5AF161",
">	c #3FEE47",
",	c #31EE3A",
"'	c #4BF053",
")	c #25ED2F",
"!	c #11EB1C",
"~	c #0BEA15",
"{	c #02E90D",
"]	c #01E90C",
"^	c #00E90B",
"/	c #E1FFE4",
"(	c #CDF9D0",
"_	c #BAF9BD",
"     .++++.     ",
"   .+@#$$#@+.   ",
"  .%$&*==*&$%.  ",
" .%-*;>,,>;*-%. ",
" +$*')!~~!)'*$+ ",
".@&;)~{]]{~);&@.",
"+#*>!{^^^^{!>*#+",
"+$=,~]^^^^]~,=$+",
"+$=,~]^^^^]~,=$+",
"+#*>!{^^^^{!>*#+",
".@&;)~{]]{~);&@.",
" +$*')!~~!)'*$+ ",
" .%-*;>,,>;*-%. ",
"  .%$&*==*&$%.  ",
"   ./(_$$_(/.   ",
"     .++++.     "};
