/* XPM */
static char * pack_del_xpm[] = {
"16 16 131 2",
"  	c None",
". 	c #E2AA4F",
"+ 	c #E2B567",
"@ 	c #E2A746",
"# 	c #F1D493",
"$ 	c #FCF7CD",
"% 	c #FBF3C7",
"& 	c #E7CB90",
"* 	c #EFCC84",
"= 	c #FDF6CC",
"- 	c #FFFCD6",
"; 	c #FAF1C5",
"> 	c #E8D19B",
", 	c #EAB75F",
"' 	c #F9E0A2",
") 	c #FBE7AD",
"! 	c #FAE2A6",
"~ 	c #F8DFA0",
"{ 	c #F3D493",
"] 	c #F5DB9D",
"^ 	c #FEF0BC",
"/ 	c #FFF1BE",
"( 	c #EBD197",
"_ 	c #A77739",
": 	c #EAB963",
"< 	c #FFEEB8",
"[ 	c #FFE5A5",
"} 	c #FFE5A4",
"| 	c #FBDC96",
"1 	c #E3AA4E",
"2 	c #D8A24F",
"3 	c #D5A862",
"4 	c #DCB879",
"5 	c #DCB87A",
"6 	c #A4743A",
"7 	c #EAB860",
"8 	c #FFEDB2",
"9 	c #FFE9AA",
"0 	c #FFDB8E",
"a 	c #FFD98A",
"b 	c #F5C875",
"c 	c #FBD281",
"d 	c #FBD486",
"e 	c #F5CC7D",
"f 	c #D4A75F",
"g 	c #E7B55D",
"h 	c #FFE8A5",
"i 	c #FFE8A3",
"j 	c #FFE39A",
"k 	c #FFD077",
"l 	c #FFCD71",
"m 	c #F1BB60",
"n 	c #FFCC70",
"o 	c #FFCC6E",
"p 	c #FFCE71",
"q 	c #DEB265",
"r 	c #E3B059",
"s 	c #FFE49A",
"t 	c #FFE396",
"u 	c #FFE193",
"v 	c #FFDD8C",
"w 	c #FFC764",
"x 	c #F4B550",
"y 	c #FFC25B",
"z 	c #FFC35D",
"A 	c #FFC561",
"B 	c #FFCC6C",
"C 	c #FFD378",
"D 	c #DCB369",
"E 	c #DFAC55",
"F 	c #FEDF8D",
"G 	c #FFDE8A",
"H 	c #FFDC87",
"I 	c #FFDB83",
"J 	c #FED982",
"K 	c #FCC05B",
"L 	c #FFBD51",
"M 	c #FFC35C",
"N 	c #FFC968",
"O 	c #FFD073",
"P 	c #FFD67F",
"Q 	c #DAB46E",
"R 	c #DBA752",
"S 	c #FEDA81",
"T 	c #FFD97E",
"U 	c #FFD77A",
"V 	c #FFD677",
"W 	c #FFD779",
"X 	c #FFC057",
"Y 	c #FFC763",
"Z 	c #FFCD6F",
"` 	c #FFD47B",
" .	c #FFDB87",
"..	c #D8B571",
"+.	c #C48A37",
"@.	c #F3C76B",
"#.	c #FFD471",
"$.	c #FFD26E",
"%.	c #FFD16A",
"&.	c #FFC45E",
"*.	c #C80000",
"=.	c #A8732D",
"-.	c #EBBA5C",
";.	c #FFCD62",
">.	c #FFCC5E",
",.	c #FFCE62",
"'.	c #FFC661",
").	c #FFC866",
"!.	c #FFCF71",
"~.	c #FFD57D",
"{.	c #FFDC89",
"].	c #F3D388",
"^.	c #A37D4E",
"/.	c #DFAC4F",
"(.	c #FFC752",
"_.	c #FFC956",
":.	c #FFC965",
"<.	c #FFCC6D",
"[.	c #FFD379",
"}.	c #F7D17F",
"|.	c #B89159",
"1.	c #5D3C23",
"2.	c #D19D46",
"3.	c #FEC44D",
"4.	c #FFCC6A",
"5.	c #FBCC71",
"6.	c #C49958",
"7.	c #6B4727",
"8.	c #BF8F45",
"9.	c #CD9D54",
"0.	c #79522C",
"              . +               ",
"          @ # $ % &             ",
"        * = - ; ; - >           ",
"    , ' ) ! ~ { ] ^ / ( _       ",
"  : < [ } } } | 1 2 3 4 5 6     ",
"  7 8 9 0 a a b c a a d e f     ",
"  g h i j k l m n l l o p q     ",
"  r s t u v w x y z A B C D     ",
"  E F G H I J K L M N O P Q     ",
"  R S T U V W X X Y Z `  ...    ",
"  +.@.#.$.%.$.M &.*.*.*.*.*.    ",
"    =.-.;.>.,.'.).!.~.{.].^.    ",
"        /.(._.:.<.[.}.|.1.      ",
"          2.3.4.5.6.7.          ",
"            8.9.0.              ",
"                                "};
