/* XPM */
static char * PPLT_xpm[] = {
"16 16 92 2",
"  	c None",
". 	c #E6B42F",
"+ 	c #C59A28",
"@ 	c #886B1C",
"# 	c #85681B",
"$ 	c #BE9427",
"% 	c #E2B12E",
"& 	c #695216",
"* 	c #050401",
"= 	c #000000",
"- 	c #030200",
"; 	c #544211",
"> 	c #DFAE2E",
", 	c #795E19",
"' 	c #45360E",
") 	c #4A3A0F",
"! 	c #090702",
"~ 	c #644F14",
"{ 	c #E2B02E",
"] 	c #1A1405",
"^ 	c #94741E",
"/ 	c #AA8422",
"( 	c #020200",
"_ 	c #0C0902",
": 	c #DAAA2C",
"< 	c #D6A82C",
"[ 	c #040301",
"} 	c #080702",
"| 	c #DEAE2E",
"1 	c #E4B22F",
"2 	c #E0AF2E",
"3 	c #E4B32F",
"4 	c #120E04",
"5 	c #010100",
"6 	c #AB8623",
"7 	c #C09627",
"8 	c #060401",
"9 	c #060501",
"0 	c #D4A62B",
"a 	c #B28C24",
"b 	c #161204",
"c 	c #46370E",
"d 	c #E4B22E",
"e 	c #644E14",
"f 	c #100C03",
"g 	c #6A5416",
"h 	c #705817",
"i 	c #171205",
"j 	c #4F3E10",
"k 	c #E5B32F",
"l 	c #654F15",
"m 	c #2D2309",
"n 	c #82661A",
"o 	c #86691C",
"p 	c #DDAD2D",
"q 	c #392D0C",
"r 	c #D3A52B",
"s 	c #A38022",
"t 	c #80641A",
"u 	c #DEAE2D",
"v 	c #2C2309",
"w 	c #7A5F19",
"x 	c #A78222",
"y 	c #675115",
"z 	c #9D7B20",
"A 	c #8E701D",
"B 	c #0A0802",
"C 	c #161104",
"D 	c #CFA22A",
"E 	c #C49928",
"F 	c #191405",
"G 	c #221A07",
"H 	c #9C7A20",
"I 	c #A17E21",
"J 	c #7A6019",
"K 	c #010000",
"L 	c #0C0A02",
"M 	c #AE8823",
"N 	c #32270A",
"O 	c #281F08",
"P 	c #B58E25",
"Q 	c #E1B02E",
"R 	c #96761F",
"S 	c #3D300C",
"T 	c #33280A",
"U 	c #655014",
"V 	c #43340E",
"W 	c #E5B42F",
"X 	c #685215",
"Y 	c #44360E",
"Z 	c #A68222",
"` 	c #725917",
". . . . . . + @ # $ . . . . . . ",
". . . . % & * = = - ; > . . . . ",
". . . . , = * ' ) ! = ~ . . . . ",
". . . { ] = ^ . . / ( _ : . . . ",
". . . < [ } | . . 1 ] = $ . . . ",
". 2 3 2 4 5 6 . . 7 8 9 0 . . . ",
"a b c d e = f g h i = j k l m $ ",
"n = = o p ) = = = = q r s - = t ",
"u v = [ w u x y l z > A B = C D ",
". E F = = G h H I J m K = L M . ",
". . + N = = = = = = = = O P . . ",
". . . Q R S B = = 8 T o | . . . ",
". . . . . . U = = V W . . . . . ",
". . . . . . X = = Y . . . . . . ",
". . . . . . X = = Y . . . . . . ",
". . . . . . Z ` ` ^ . . . . . . "};
