/* XPM */
static char * proxy_xpm[] = {
"16 16 22 1",
" 	c None",
".	c #FFFFFF",
"+	c #B2B2B2",
"@	c #D8D8D8",
"#	c #CFCFCF",
"$	c #E9E9E9",
"%	c #ECECEC",
"&	c #EBEBEB",
"*	c #B3B3B3",
"=	c #E0E0E0",
"-	c #CACACA",
";	c #D2D2D2",
">	c #DEDEDE",
",	c #CBCBCB",
"'	c #E5E5E5",
")	c #D5D5D5",
"!	c #E7E7E7",
"~	c #B8B8B8",
"{	c #C9C9C9",
"]	c #C3C3C3",
"^	c #DBDBDB",
"/	c #BDBDBD",
"................",
"....+++++++.....",
"...+++++++++....",
"..++++++@++.....",
"..++++#$%&++....",
"..+++++*&+++....",
"..++++++%=-;+...",
"..++++>%&&&&,+..",
"...++++'%&&;+...",
"....+++*&&@++...",
"....+++'%&&;+...",
".....+>%++++....",
"....+++'%>+.....",
"...++)!~&++++...",
"..+{!]^!+/){{+..",
"...!!!/+!^+{!!.."};
