/* XPM */
static char * kdf_xpm[] = {
"16 16 147 2",
"  	c None",
". 	c #0088EC",
"+ 	c #00B6FD",
"@ 	c #00549F",
"# 	c #00B7F8",
"$ 	c #00DEFF",
"% 	c #00E9FF",
"& 	c #00D4FF",
"* 	c #00539D",
"= 	c #009DF8",
"- 	c #00CEFE",
"; 	c #00D0FF",
"> 	c #00CEFF",
", 	c #00D5FF",
"' 	c #005EB5",
") 	c #0DACEA",
"! 	c #00DFFF",
"~ 	c #00BEFF",
"{ 	c #00BAFF",
"] 	c #00BDFF",
"^ 	c #00BCFF",
"/ 	c #00C2FF",
"( 	c #00ADFF",
"_ 	c #001C4C",
": 	c #22A5D7",
"< 	c #00E4FF",
"[ 	c #00D1FF",
"} 	c #02B2FF",
"| 	c #01A8FF",
"1 	c #00A7FF",
"2 	c #00B0FF",
"3 	c #00A8FF",
"4 	c #001E48",
"5 	c #FF8021",
"6 	c #FA913A",
"7 	c #22A2E2",
"8 	c #00D2FF",
"9 	c #05C3FF",
"0 	c #059FFF",
"a 	c #00A6FF",
"b 	c #00B7FF",
"c 	c #00AEFF",
"d 	c #001C48",
"e 	c #FE8B2C",
"f 	c #FF9534",
"g 	c #FF8227",
"h 	c #4D83B1",
"i 	c #00C5FF",
"j 	c #00B9FF",
"k 	c #00A4FF",
"l 	c #00AFFF",
"m 	c #00C3FF",
"n 	c #00AAFF",
"o 	c #001748",
"p 	c #FE892D",
"q 	c #FF9136",
"r 	c #FF771C",
"s 	c #F46319",
"t 	c #5E6C98",
"u 	c #00B5FF",
"v 	c #009EEB",
"w 	c #00B087",
"x 	c #00881E",
"y 	c #FB7A25",
"z 	c #FF8A32",
"A 	c #FF7D28",
"B 	c #FF6B12",
"C 	c #FC731F",
"D 	c #75758F",
"E 	c #008EFE",
"F 	c #0098F1",
"G 	c #00A292",
"H 	c #00D324",
"I 	c #00FD00",
"J 	c #00FF03",
"K 	c #00AB0C",
"L 	c #FB701D",
"M 	c #FF7B28",
"N 	c #FF7222",
"O 	c #FF7A29",
"P 	c #FF8330",
"Q 	c #C68827",
"R 	c #04825D",
"S 	c #00AA3B",
"T 	c #00DF00",
"U 	c #00E501",
"V 	c #00DE07",
"W 	c #00DF08",
"X 	c #00E809",
"Y 	c #009A0B",
"Z 	c #AC3A09",
"` 	c #FB651A",
" .	c #FF6719",
"..	c #FF651C",
"+.	c #FF6420",
"@.	c #C77820",
"#.	c #05B30D",
"$.	c #00C106",
"%.	c #00BC0F",
"&.	c #00B212",
"*.	c #00B411",
"=.	c #00B710",
"-.	c #00CF0D",
";.	c #00B809",
">.	c #712003",
",.	c #F34F0D",
"'.	c #FF5711",
").	c #FF4910",
"!.	c #B75A13",
"~.	c #01B415",
"{.	c #00C70D",
"].	c #00D00B",
"^.	c #00A914",
"/.	c #009F15",
"(.	c #00BA0F",
"_.	c #00DE0A",
":.	c #00BD05",
"<.	c #541201",
"[.	c #CC2F04",
"}.	c #921301",
"|.	c #21310A",
"1.	c #00C514",
"2.	c #00D40A",
"3.	c #00E606",
"4.	c #00CD0B",
"5.	c #00B012",
"6.	c #00CB0C",
"7.	c #00F106",
"8.	c #00CA02",
"9.	c #007E10",
"0.	c #00DC0B",
"a.	c #00F503",
"b.	c #00D908",
"c.	c #00C10E",
"d.	c #00E308",
"e.	c #00FF02",
"f.	c #00AF00",
"g.	c #006009",
"h.	c #00E905",
"i.	c #00EC06",
"j.	c #00D80B",
"k.	c #00C905",
"l.	c #006701",
"m.	c #000F00",
"n.	c #00B806",
"o.	c #006E05",
"p.	c #001300",
"              . + @             ",
"            # $ % & *           ",
"        = - & ; > , > '         ",
"        ) ! ~ { ] ^ / ( _       ",
"        : < [ } | 1 2 3 4       ",
"    5 6 7 , 8 9 0 a b c d       ",
"  e f g h ] i j k l m n o       ",
"  p q r s t 1 u l c v w x       ",
"  y z A B C D E F G H I J K     ",
"  L M N O P Q R S T U V W X Y   ",
"  Z `  ...+.@.#.$.%.&.*.=.-.;.  ",
"    >.,.'.).!.~.{.].^./.(._.:.  ",
"      <.[.}.|.1.2.3.4.5.6.7.8.  ",
"              9.0.a.b.c.d.e.f.  ",
"                g.h.i.j.k.l.m.  ",
"                    n.o.p.      "};
