/* XPM */
static char *root[]={
"16 16 169 2",
"Qt c None",
"ar c #000000",
".Z c #000000",
"aE c #000000",
"ad c #000000",
".# c #001885",
".g c #00000b",
"aF c #000818",
"aq c #000000",
"as c #000a15",
"aM c #050a14",
".A c #00163b",
"aD c #000811",
".0 c #081e3c",
".M c #001431",
"#a c #0b1d37",
".h c #243f8b",
".n c #1a2b4c",
".o c #1a3468",
".z c #132c58",
".a c #3b55b8",
".f c #34457a",
"at c #223b52",
"aC c #1e364e",
"#b c #2f5685",
"#o c #33557b",
"aG c #455e75",
"ae c #3b5d7f",
"#2 c #416d9c",
"aJ c #41536c",
"aI c #42556c",
"aK c #40556f",
"aH c #405670",
"aL c #496277",
"ac c #3b6087",
"ap c #325579",
".N c #3c6eb6",
"#p c #4a82c0",
"#A c #4a77aa",
".Y c #3f6fb1",
"au c #6689aa",
".b c #7e93d4",
"#M c #5f8bbb",
".e c #798fcd",
"aB c #6086a7",
"#1 c #6e97bc",
"#B c #6497d0",
"#N c #6c9fd0",
".i c #adbfe3",
".m c #a4b7da",
".d c #a0b7ea",
".c c #a2b8e9",
".B c #7cadf3",
".L c #6ea3ed",
"af c #98c2e9",
"ao c #92bce7",
".1 c #72adfb",
".p c #c2daf6",
".y c #b9d5f8",
"#U c #122f7e",
"#T c #13307e",
"#9 c #203a82",
"#8 c #213b83",
"a. c #536ea8",
"al c #586ca5",
"ak c #5a6fa6",
"#7 c #5b73aa",
"## c #6fabfa",
"am c #778dbb",
"aj c #8092bd",
"#V c #8facd6",
"ay c #94a7d5",
"#S c #95b0d6",
"ax c #96aad6",
".X c #9cceff",
"#c c #9ccfff",
"#n c #9ed0ff",
".2 c #9fcdff",
".O c #a0d1ff",
"az c #a1b7db",
"#. c #a4d1ff",
"#d c #a7d2ff",
"#m c #a8d2ff",
"aw c #a9bcde",
"#q c #afd9ff",
"#x c #b2d6ff",
"#w c #b3d8ff",
"#u c #b5d9ff",
"#H c #b6d9ff",
"#K c #b6dbff",
"#C c #b8deff",
"#L c #b8dfff",
"#s c #b9dcff",
"#r c #b9ddff",
"#G c #bad7f7",
"#t c #badcff",
"#e c #badeff",
"#F c #bbd8f6",
"#Z c #bbdcff",
"#y c #bbddff",
"#l c #bbdeff",
"#z c #bbe3ff",
"#h c #bedfff",
"#g c #bee0ff",
"#3 c #c0eaff",
"#v c #c1e1ff",
"ab c #c1eaff",
"#X c #c3e1ff",
".3 c #c3e2ff",
"#D c #c3e3ff",
"#k c #c4e3ff",
"#J c #c4e4ff",
"#O c #c4e6ff",
"#Q c #c5e3ff",
"#f c #c5e4ff",
"#j c #c6e4ff",
"#E c #c6e5ff",
".9 c #c8e5ff",
"#i c #c9e6ff",
"#W c #c9e8ff",
"#0 c #c9eaff",
".8 c #cae5ff",
"#Y c #cae6ff",
"ag c #caebff",
".5 c #cce6ff",
"#4 c #cdecff",
".P c #cee7ff",
"#I c #cee8ff",
"#P c #cee9ff",
".Q c #cfe7ff",
".R c #cfe8ff",
"a# c #cfe9ff",
"#R c #cfebff",
".W c #d0e8ff",
"#6 c #d0eaff",
".4 c #d1eaff",
"#5 c #d1ebff",
".T c #d2e9ff",
".D c #d3e9ff",
"aa c #d3f0ff",
".U c #d4ebff",
".J c #d5eaff",
".V c #d5ebff",
".S c #d5ecff",
".6 c #d5edff",
".7 c #d7eeff",
".E c #d8edff",
".K c #d8efff",
".C c #d9f0ff",
"ah c #d9f5ff",
".I c #dbeeff",
".G c #dbefff",
".F c #ddf0ff",
"an c #ddf1ff",
".H c #def1ff",
"ai c #e0f2ff",
"aA c #e0fbff",
"av c #e2fbff",
".t c #e3f2ff",
".u c #e4f3ff",
".s c #e5f4ff",
".v c #e6f4ff",
".r c #e6f5ff",
".w c #e7f6ff",
".q c #f1ffff",
".x c #f3ffff",
".l c #f5feff",
".j c #f7feff",
".k c #ffffff",
"QtQtQtQtQtQtQtQtQtQtQtQtQtQtQtQt",
"QtQtQtQt.#.a.b.c.d.e.f.gQtQtQtQt",
"QtQtQt.h.i.j.k.k.k.k.l.m.nQtQtQt",
"QtQt.o.p.q.r.s.t.u.v.w.x.y.zQtQt",
"Qt.A.B.C.D.E.F.E.G.H.I.J.K.L.MQt",
"Qt.N.O.P.Q.R.S.T.U.V.Q.W.Q.X.Y.Z",
".0.1.2.3.4.5.6.7.7.S.8.S.9#.###a",
"#b#c#d#e#f.9.9#g#h#i#j#k#l#m#n#o",
"#p#q#r#s#j#t#u#v#v#w#u.3#x#y#z#A",
"#B#C#r#D#i#t#E#F#G#k#H#I#J#K#L#M",
"#N#O.3#P#Q#R#S#T#U#V#W#X#Y#Z#0#1",
"#2#3#4#5#6.S#7#8#9a..4a#.6aaabac",
"adaeafagahaiajakalamanah#4aoapaq",
"QtarasatauavawaxayazaAaBaCaDaEQt",
"QtQtQtQtaFaGaHaIaJaKaLaMQtQtQtQt",
"QtQtQtQtQtQtQtQtQtQtQtQtQtQtQtQt"};
