/* XPM */
static char * slot_range_xpm[] = {
"16 16 79 1",
" 	c None",
".	c #2B2B00",
"+	c #FFFFC0",
"@	c #C0C000",
"#	c #000000",
"$	c #404000",
"%	c #6B6B00",
"&	c #808000",
"*	c #4D4D4D",
"=	c #FCFCBE",
"-	c #636363",
";	c #ACAC9E",
">	c #444444",
",	c #626262",
"'	c #C3C3C3",
")	c #A4A48E",
"!	c #989898",
"~	c #ABABA4",
"{	c #4E4E4E",
"]	c #303030",
"^	c #606060",
"/	c #F4F4BC",
"(	c #0A0A0A",
"_	c #E3E3E3",
":	c #F8F8F8",
"<	c #CACACA",
"[	c #E0E0E0",
"}	c #ABABAB",
"|	c #A4A4A4",
"1	c #BCBCBC",
"2	c #585858",
"3	c #A0A0A0",
"4	c #ADADAD",
"5	c #B9B924",
"6	c #686868",
"7	c #EAEAB9",
"8	c #141414",
"9	c #676767",
"0	c #A9A9A9",
"a	c #BBBBBB",
"b	c #F2F2F2",
"c	c #EAEAEA",
"d	c #B4B4B4",
"e	c #808080",
"f	c #C0C0C0",
"g	c #E8E8E8",
"h	c #ACACAC",
"i	c #B5B535",
"j	c #707070",
"k	c #616161",
"l	c #6C6C6C",
"m	c #B3B3B3",
"n	c #B6B6B6",
"o	c #959595",
"p	c #E4E4E4",
"q	c #DEDEDE",
"r	c #ECECEC",
"s	c #B0B0B0",
"t	c #A5A5A5",
"u	c #B5B5B5",
"v	c #C1C1C1",
"w	c #5C5C5C",
"x	c #9E9E9E",
"y	c #7B7B7B",
"z	c #CCCCCC",
"A	c #545454",
"B	c #7C7C7C",
"C	c #DFDFDF",
"D	c #8B8B8B",
"E	c #4B4B4B",
"F	c #898989",
"G	c #D0D0D0",
"H	c #424242",
"I	c #383838",
"J	c #D2D2D2",
"K	c #0B0B0B",
"L	c #646464",
"M	c #878787",
"N	c #393939",
"                ",
"          .     ",
"         +@# $  ",
"         +@#+@# ",
"  +%# #  +@#+@# ",
"  +@#+&#*=@#+@# ",
"  +@#+@#-;@>+@# ",
"  +@#+@#,')!~@{]",
" ^/@(+@#!_:<[}|1",
"234567@890abbcde",
"2fgfhdijklmn'oee",
"2pppqr<st]uv'eew",
"2'ssqq<xe]yzxeA ",
" BCCh'Dee]EFeE  ",
" 2GGc'eeH IJeK  ",
"  L'<MeN        "};
