/* XPM */
static char * slot_xpm[] = {
"16 18 11 1",
" 	c None",
".	c #000000",
"+	c #FFFFC0",
"@	c #C0C000",
"#	c #585858",
"$	c #A0A0A0",
"%	c #DCDCDC",
"&	c #303030",
"*	c #FFFFFF",
"=	c #C3C3C3",
"-	c #808080",
"       .        ",
"      +@. .     ",
"      +@.+@.    ",
"      +@.+@.    ",
"      +@.+@.    ",
"     #+@.+@.    ",
"    #$$@#+@.    ",
"    #$%$$$@#&   ",
"    #***=%$$=&  ",
"    #===***=-&  ",
"    #=$$==$--&  ",
"     #**$=---&  ",
"     #==*=--&   ",
"      #==--&    ",
"       #--&     ",
"       #*-.     ",
"                ",
"                "};
