/* XPM */
static char * slot_xpm[] = {
"16 16 42 1",
" 	c None",
".	c #151500",
"+	c #FFFFC0",
"@	c #C0C000",
"#	c #000000",
"$	c #2B2B00",
"%	c #585858",
"&	c #888888",
"*	c #C0C0AB",
"=	c #3B3B3B",
"-	c #A0A0A0",
";	c #CFCFCF",
">	c #A7A77C",
",	c #909090",
"'	c #B5B5A7",
")	c #444444",
"!	c #303030",
"~	c #F4F4F4",
"{	c #FBFBFB",
"]	c #BFBFBF",
"^	c #D5D5D5",
"/	c #A4A48E",
"(	c #989898",
"_	c #B3B3B3",
":	c #C3C3C3",
"<	c #F8F8F8",
"[	c #BCBCBC",
"}	c #808080",
"|	c #ABABAB",
"1	c #B5B5B5",
"2	c #BBBBBB",
"3	c #999999",
"4	c #EBEBEB",
"5	c #C0C0C0",
"6	c #656565",
"7	c #939393",
"8	c #E4E4E4",
"9	c #A5A5A5",
"0	c #5C5C5C",
"a	c #9E9E9E",
"b	c #545454",
"c	c #101010",
"       .        ",
"      +@# $     ",
"      +@#+@#    ",
"      +@#+@#    ",
"     %+@#+@#    ",
"    %&*@=+@#    ",
"    %-;>,'@)!   ",
"    %~{~]^/(_!  ",
"    %:]]<<~[}!  ",
"    %|112:3}}!  ",
"     %445:}}6!  ",
"     %7:89}0!   ",
"       &a}b     ",
"       %^}c     ",
"                ",
"                "};
