/* XPM */
static char * slot_range_xpm[] = {
"16 18 28 1",
" 	c None",
".	c #000000",
"+	c #FFFFC0",
"@	c #C0C000",
"#	c #4D4D4D",
"$	c #FBFBBD",
"%	c #696969",
"&	c #959595",
"*	c #585858",
"=	c #616161",
"-	c #C9C9C9",
";	c #A0A0A0",
">	c #303030",
",	c #9C9C9C",
"'	c #E9E9E9",
")	c #FFFFFF",
"!	c #C3C3C3",
"~	c #DCDCDC",
"{	c #777777",
"]	c #B2B2B2",
"^	c #808080",
"/	c #8A8A8A",
"(	c #9D9D9D",
"_	c #E0E0E0",
":	c #EDEDED",
"<	c #353535",
"[	c #757575",
"}	c #393939",
"                ",
"          .     ",
"         +@. .  ",
"         +@.+@. ",
"   .     +@.+@. ",
"  +@. .  +@.+@. ",
"  +@.+@.#$@.+@. ",
"  +@.+@.%&@*+@. ",
"  +@.+@.=-;;;@*>",
" *+@.+@.,')!~;;!",
"*;;@*+@.{]!)))!^",
"*;~;;;@*>/(!!;^^",
"*)))!~;;!>_(!^^^",
"*!!!)))!^>^:!^^>",
"*!;;!!;^^>{]^^> ",
" *));!^^^><[^>  ",
" *!!)!^^> }:^.  ",
"  *!!^^>        "};
