/* XPM */
static char * superuser_xpm[] = {
"16 16 21 1",
" 	c None",
".	c #FF0000",
"+	c #710000",
"@	c #000000",
"#	c #550000",
"$	c #8E0000",
"%	c #AA0000",
"&	c #8D0000",
"*	c #C60000",
"=	c #630000",
"-	c #B90000",
";	c #F80000",
">	c #CE0000",
",	c #E30000",
"'	c #950000",
")	c #400000",
"!	c #6A0000",
"~	c #F00000",
"{	c #D50000",
"]	c #EA0000",
"^	c #800000",
"................",
"....+@@@@@#.....",
"...$@@@@@@@+....",
"..%@@@@@&*#.....",
"..%@@@=-;>%+....",
"..%@@@@,**@+....",
"..%@@@@@;')!$...",
"..%@@@';*~{,#%..",
"...$@@@%;>]!$...",
"....+@@,*~^@$...",
"....+@@%;>]!$...",
".....#';@@@+....",
"....+@@%;'#.....",
"...$@@@@**@@$...",
"..%@@@@@@@@@@%..",
"...$@@@@@@@@@%.."};
