/* XPM */
static char * symbol_xpm[] = {
"16 16 120 2",
"  	c None",
". 	c #8F8F8F",
"+ 	c #FFFFFF",
"@ 	c #B8CFF9",
"# 	c #ACC8F6",
"$ 	c #7EA7EE",
"% 	c #6E9DE9",
"& 	c #6497E6",
"* 	c #598FE1",
"= 	c #4F87DD",
"- 	c #4582DA",
"; 	c #3A7BD6",
"> 	c #3073D2",
", 	c #256DCE",
"' 	c #1865C9",
") 	c #F0F6FD",
"! 	c #F0F5FD",
"~ 	c #EEF3FD",
"{ 	c #ECF2FD",
"] 	c #E9F0FB",
"^ 	c #E6EEF8",
"/ 	c #E4EBF7",
"( 	c #E2EAF5",
"_ 	c #DFE8F4",
": 	c #DCE5F2",
"< 	c #DAE3EF",
"[ 	c #D7E1EE",
"} 	c #FFFFFD",
"| 	c #FFFFFE",
"1 	c #FFFEFB",
"2 	c #FEFCFA",
"3 	c #FCFBF9",
"4 	c #FBF9F7",
"5 	c #FAF8F6",
"6 	c #F9F7F4",
"7 	c #D8DBDE",
"8 	c #AAB8C4",
"9 	c #A9B4BF",
"0 	c #F4F4F3",
"a 	c #F8F8F8",
"b 	c #F9F9F9",
"c 	c #F7F7F7",
"d 	c #F5F5F5",
"e 	c #F4F4F4",
"f 	c #F2F2F2",
"g 	c #D9D9DB",
"h 	c #A0B2C5",
"i 	c #CBE3FC",
"j 	c #A8C3DF",
"k 	c #C7CCD1",
"l 	c #ADACAB",
"m 	c #DEDEDE",
"n 	c #FEFDFD",
"o 	c #F8F7F8",
"p 	c #F3F3F3",
"q 	c #EFEFEF",
"r 	c #AAB2BB",
"s 	c #C7DCF1",
"t 	c #DAEFFF",
"u 	c #CBE1F2",
"v 	c #B8BDC1",
"w 	c #8C8B8A",
"x 	c #CDCCCB",
"y 	c #E9EBED",
"z 	c #EAEAE9",
"A 	c #F8F7F6",
"B 	c #F0F0F1",
"C 	c #EEEEEE",
"D 	c #B9BEC2",
"E 	c #DDE5EE",
"F 	c #DBE4ED",
"G 	c #AEB6BD",
"H 	c #A9A9A8",
"I 	c #9C9EA0",
"J 	c #8A99A8",
"K 	c #AABDD1",
"L 	c #9AAEC2",
"M 	c #C5CACF",
"N 	c #B9B8B8",
"O 	c #C7C7C7",
"P 	c #D0CFCF",
"Q 	c #7A7A79",
"R 	c #7F7E7E",
"S 	c #8596A7",
"T 	c #B6D1EB",
"U 	c #D7EEFF",
"V 	c #CBE8FF",
"W 	c #9EB1C4",
"X 	c #F2F1F0",
"Y 	c #D4D4D4",
"Z 	c #EAEAEA",
"` 	c #CFCFCE",
" .	c #C7C7C6",
"..	c #7B7C7D",
"+.	c #AEBFCF",
"@.	c #BDD0E2",
"#.	c #B4C6DA",
"$.	c #C5D9EF",
"%.	c #B2C0CD",
"&.	c #D2D2D1",
"*.	c #5F5E5E",
"=.	c #D2D2D2",
"-.	c #B3B7BA",
";.	c #EFF4F9",
">.	c #E4E9EF",
",.	c #AEB3B9",
"'.	c #707274",
").	c #7C7B7B",
"!.	c #ABABAB",
"~.	c #FCFCFC",
"{.	c #D1D0D0",
"].	c #C5C5C4",
"^.	c #D2D1D1",
"/.	c #848483",
"(.	c #A8A8A8",
"_.	c #FDFDFD",
":.	c #ECECEC",
"<.	c #DFDFDF",
"[.	c #FBFBFB",
"}.	c #FEFEFE",
". . . . . . . . . . . . . . . . ",
". + @ # $ % & * = - ; > , ' + . ",
". + ) ! ~ { ] ^ / ( _ : < [ + . ",
". + + + } | | | 1 2 3 4 5 6 + . ",
". + + 7 8 9 0 a a b c d e f + . ",
". + g h i j k l m n o d p q + . ",
". + r s t u v w x y z A B C + . ",
". + D E F G H I J K L M 0 e + . ",
". + N O P Q R S T U V W X Y + . ",
". + Z `  .N ..+.@.#.$.%.&.*.+ . ",
". + c c b d =.-.;.>.,.'.).!.+ . ",
". + c a a b ~.{.].^./.(.(.(.(.. ",
". + b b b b b _.C :.<.(.+ + .   ",
". + [.[.[.[.[.[._.}.d (.+ .     ",
". + + + + + + + + + _.(..       ",
". . . . . . . . . . . .         "};
