/* XPM */
static char *user[]={
"16 16 34 1",
". c None",
"k c #040404",
"i c #c1c1c1",
"f c #020202",
"q c #c0c0c0",
"d c #010101",
"F c #01fcf8",
"v c #c0c0c0",
"c c #010101",
"E c #01fcf8",
"s c #c0c0c0",
"# c #000000",
"b c #000000",
"r c #c0c0c0",
"j c #c0c0c0",
"e c #808080",
"l c #c0c0c0",
"a c #000000",
"z c #001c1c",
"D c #003837",
"B c #005453",
"A c #00706e",
"x c #00a8a5",
"C c #00c4c1",
"y c #00fcf8",
"n c #4040e5",
"t c #555555",
"g c #636363",
"o c #6a6a6a",
"w c #808080",
"p c #959595",
"m c #9595cc",
"u c #aaaaaa",
"h c #b9b9b9",
"................",
"....#aaaaab.....",
"...caaaaaaa#....",
"..daaaaaefb.....",
"..daaaghijd#....",
"..daaaaklfa#....",
"..daaaaaimnoc...",
"..daaapilqrstd..",
"...caaauijvoc...",
"....#aaklqwac...",
"....#aauijvoc...",
".....bpiaaa#....",
"....#aauipb.....",
"...caxyzlfaac...",
"..dAyBCyaDxAAd..",
"...EyyDayCaAyF.."};
