/* XPM */
static char * kdmconfig2_xpm[] = {
"16 16 124 2",
"  	c None",
". 	c #6494CB",
"+ 	c #B2CCEB",
"@ 	c #CBDEF2",
"# 	c #C9DDF2",
"$ 	c #ADC9E8",
"% 	c #5689C3",
"& 	c #497EBB",
"* 	c #B8D5F4",
"= 	c #C8DFF8",
"- 	c #C5DDF6",
"; 	c #C9DFF8",
"> 	c #ACCCF0",
", 	c #3F73B0",
"' 	c #619DDF",
") 	c #9DC6F1",
"! 	c #A0C8F1",
"~ 	c #A2CBF2",
"{ 	c #9BC5F1",
"] 	c #5594D9",
"^ 	c #5EA3EB",
"/ 	c #82B9EE",
"( 	c #8BC0F0",
"_ 	c #90C3F0",
": 	c #8FC3F0",
"< 	c #8AC0F0",
"[ 	c #7FB7EE",
"} 	c #59A1EA",
"| 	c #66ABEC",
"1 	c #7EBCF0",
"2 	c #8BC5F3",
"3 	c #91CBF4",
"4 	c #91CAF3",
"5 	c #8AC4F2",
"6 	c #7CBAEF",
"7 	c #62A9EB",
"8 	c #64A2DC",
"9 	c #93CBF5",
"0 	c #A1D6F7",
"a 	c #AADDF9",
"b 	c #A9DDF9",
"c 	c #A0D5F7",
"d 	c #91CAF5",
"e 	c #5B99D4",
"f 	c #3F6F9F",
"g 	c #9FCFF1",
"h 	c #C2EBFD",
"i 	c #CAF1FF",
"j 	c #C9F0FE",
"k 	c #C1EAFD",
"l 	c #93C4EA",
"m 	c #649DDA",
"n 	c #AED5F4",
"o 	c #CEE8FA",
"p 	c #CBE7FA",
"q 	c #AAD2F3",
"r 	c #5690D0",
"s 	c #4687CA",
"t 	c #A4CCF3",
"u 	c #B2D3F4",
"v 	c #ACD0F3",
"w 	c #ADD0F3",
"x 	c #B4D4F4",
"y 	c #99C5F1",
"z 	c #3E7EC2",
"A 	c #306BA9",
"B 	c #7CB8F0",
"C 	c #9BCAF2",
"D 	c #9ECCF3",
"E 	c #A0CDF3",
"F 	c #9AC9F2",
"G 	c #76B5F0",
"H 	c #5A9AD8",
"I 	c #80BDF1",
"J 	c #8BC4F1",
"K 	c #90C8F2",
"L 	c #91C9F3",
"M 	c #89C3F1",
"N 	c #7EBCF1",
"O 	c #4F8FCD",
"P 	c #75B3E9",
"Q 	c #88C4F2",
"R 	c #94CCF4",
"S 	c #9DD2F6",
"T 	c #A1D5F8",
"U 	c #A1D5F7",
"V 	c #9CD2F6",
"W 	c #92CBF4",
"X 	c #87C3F2",
"Y 	c #6DACE4",
"Z 	c #4E85BA",
"` 	c #89C4F3",
" .	c #96CEF5",
"..	c #A4D8F8",
"+.	c #AFE0FB",
"@.	c #B4E4FC",
"#.	c #B4E4FB",
"$.	c #AEDFFA",
"%.	c #A3D7F8",
"&.	c #95CDF5",
"*.	c #86C2F2",
"=.	c #4478AD",
"-.	c #538AC0",
";.	c #A4D6F9",
">.	c #A8DAF8",
",.	c #B2E2FB",
"'.	c #BEEBFE",
").	c #C5F0FF",
"!.	c #C4EFFF",
"~.	c #BDEAFE",
"{.	c #B0E1FA",
"].	c #A8D9F8",
"^.	c #A1D4F9",
"/.	c #477EB5",
"(.	c #5B86B0",
"_.	c #96BDD9",
":.	c #B9DCEF",
"<.	c #CEEBF9",
"[.	c #DBF2FD",
"}.	c #DAF2FC",
"|.	c #CCEAF8",
"1.	c #B5D8EC",
"2.	c #93BAD7",
"3.	c #4D79A4",
"                                ",
"          . + @ # $ %           ",
"        & * = - - ; > ,         ",
"        ' ) ! ~ ~ ! { ]         ",
"        ^ / ( _ : < [ }         ",
"        | 1 2 3 4 5 6 7         ",
"        8 9 0 a b c d e         ",
"        f g h i j k l           ",
"          m n o p q r           ",
"        s t u v w x y z         ",
"      A B C D E E D F G         ",
"      H I J K L L K M N O       ",
"      P Q R S T U V W X Y       ",
"    Z `  ...+.@.#.$.%.&.*.=.    ",
"    -.;.>.,.'.).!.~.{.].^./.    ",
"      (._.:.<.[.}.|.1.2.3.      "};
